<svg id="Layer_1" data-name="Layer 1" xmlns="http://www.w3.org/2000/svg" viewBox="0 0 754.02 240.56"><defs><style>.cls-1{fill:#eb7d00;}.cls-2{fill:#149132;}.cls-3{fill:#be2323;}</style></defs><title>VK_logotyp_liggande</title><path d="M693.6,488.55H678.45l-4.36-39.11a109.39,109.39,0,0,1-.79-11.39c-0.2,1-1.19,6-2.47,11l-12.77,39.5H645.78l-12.87-39.41c-1.39-4.85-2.37-9.9-2.58-11.09,0,0.6-.1,6-0.59,11.39l-4.36,39.11H610.24l9.6-69.3h17.43l13.17,41.68c0.69,2.67,1.29,6.14,1.39,6.73a61.07,61.07,0,0,1,1.39-6.63l13.36-41.78H684Z" transform="translate(-217.7 -301.47)"/><path d="M787.79,488.55H772.64l-4.36-39.11a110,110,0,0,1-.79-11.39c-0.2,1-1.19,6-2.48,11l-12.77,39.5H740L727.1,449.14c-1.39-4.85-2.38-9.9-2.58-11.09,0,0.6-.1,6-0.6,11.39l-4.35,39.11H704.42l9.6-69.3h17.43l13.16,41.68c0.69,2.67,1.29,6.14,1.39,6.73a63,63,0,0,1,1.39-6.63l13.37-41.78h17.42Z" transform="translate(-217.7 -301.47)"/><path d="M798.09,459.23v-39.6h15.25v39.21c0,11.29,4.5,17.13,13.8,17.13s13.8-5.64,13.8-16.63v-39.7h15.24v39.11c0,21-10.63,31.29-29.25,31.29s-28.85-10.4-28.85-30.79" transform="translate(-217.7 -301.47)"/><polygon points="652.49 117.77 666.54 117.77 699.02 160.44 699.02 117.77 714.07 117.77 714.07 187.07 701.1 187.07 667.54 143.02 667.54 187.07 652.49 187.07 652.49 117.77"/><polygon points="249 117.77 264.22 117.77 264.22 148.04 292.31 117.77 310.7 117.77 282.52 147.15 311.99 187 293.7 187 272.24 157.53 264.22 165.84 264.22 187 249 187 249 117.77"/><path d="M587,453.33v-0.19c0-11.72-8.59-21.48-20.7-21.48s-20.5,9.56-20.5,21.28v0.2c0,11.71,8.59,21.47,20.7,21.47S587,465,587,453.33m-56.91,0v-0.19c0-19.43,15.33-35.34,36.41-35.34s36.22,15.71,36.22,35.14v0.2c0,19.43-15.33,35.33-36.41,35.33s-36.21-15.71-36.21-35.14" transform="translate(-217.7 -301.47)"/><path d="M685.47,378c6.73,0,10.79-2.38,10.79-7.52v-0.2c0-4.65-3.47-7.52-11.29-7.52h-9.64V378h10.14Zm-4.06-27.91c6.73,0,11-2.18,11-7.32v-0.2c0-4.55-3.56-7.12-10-7.12h-7.07v14.65h6.08Zm-20.93-28h24.19c7.92,0,14.15,2.18,18.11,6.13A15.89,15.89,0,0,1,707.54,340v0.2c0,7.82-4.15,12.18-9.1,14.95,8,3.07,13,7.72,13,17v0.2c0,12.67-10.29,19-25.93,19h-25V322.08Z" transform="translate(-217.7 -301.47)"/><path d="M916.89,381.26l9-10.78c6.24,5.14,12.77,8.41,20.68,8.41,6.24,0,10-2.47,10-6.53v-0.2c0-3.86-2.37-5.84-14-8.81-14-3.56-23-7.42-23-21.17V342c0-12.57,10.09-20.88,24.24-20.88a40.1,40.1,0,0,1,25.73,8.8l-7.92,11.48c-6.14-4.25-12.17-6.83-18-6.83s-8.91,2.67-8.91,6v0.2c0,4.55,3,6,14.95,9.1,14.05,3.66,22,8.71,22,20.78v0.2c0,13.76-10.49,21.48-25.43,21.48a44.07,44.07,0,0,1-29.39-11.09" transform="translate(-217.7 -301.47)"/><polygon points="236.24 20.36 253.07 20.36 271.18 69.15 289.29 20.36 305.71 20.36 277.71 90.13 264.25 90.13 236.24 20.36"/><path d="M619,355.73c7.42,0,11.68-4,11.68-9.79v-0.2c0-6.53-4.55-9.89-12-9.89h-9.43v19.89H619Zm-25-33.65h26c8.81,0,15.64,2.47,20.19,7,3.86,3.86,5.93,9.31,5.93,15.84v0.2c0,11.18-6,18.21-14.84,21.47l16.92,24.74H630.36l-14.85-22.16h-6.27v22.16H594V322.08Z" transform="translate(-217.7 -301.47)"/><path d="M806.53,355.73c7.42,0,11.68-4,11.68-9.79v-0.2c0-6.53-4.55-9.89-12-9.89H796.8v19.89h9.73Zm-25-33.65h26c8.81,0,15.64,2.47,20.19,7,3.86,3.86,5.93,9.31,5.93,15.84v0.2c0,11.18-6,18.21-14.84,21.47l16.92,24.74H817.92l-14.85-22.16H796.8v22.16H781.57V322.08Z" transform="translate(-217.7 -301.47)"/><path d="M540.81,365.1h17.81l-8.79-27.36Zm1-43.26h16.44l24.6,69.54H567.06l-4.59-14.3H536.86l-4.71,14.3h-15.2Z" transform="translate(-217.7 -301.47)"/><polygon points="505.43 20.61 549.72 20.61 549.72 34.17 520.57 34.17 520.57 48.22 540.69 48.22 540.69 61.78 520.57 61.78 520.57 76.32 549.72 76.32 549.72 89.88 505.43 89.88 505.43 20.61"/><path d="M841.47,356.83v-0.19c0-19.79,15.42-36,36.49-36,12.53,0,20.09,3.37,27.34,9.54l-9.64,11.64c-5.37-4.48-10.15-7.06-18.2-7.06-11.14,0-20,9.85-20,21.68v0.2c0,12.73,8.75,22.07,21.08,22.07A24.44,24.44,0,0,0,893,374.53v-9.94H877.57V351.36h30.24v30.23a45.23,45.23,0,0,1-29.74,11c-21.68,0-36.59-15.21-36.59-35.8" transform="translate(-217.7 -301.47)"/><path class="cls-1" d="M329.64,369.13a4.26,4.26,0,0,0,2.58.44c0-2.35-.28-4.61-0.17-6.59a9.16,9.16,0,0,0-4.26-2.46,21,21,0,0,0,.69,6.68A3.55,3.55,0,0,0,329.64,369.13Z" transform="translate(-217.7 -301.47)"/><path class="cls-1" d="M399.84,367.25a2.24,2.24,0,0,0-.32-1.88,3.4,3.4,0,0,0-.2-0.32,2.55,2.55,0,0,1-.37-1.43,2.22,2.22,0,0,1,.08-0.69,1.93,1.93,0,0,0-.17-1.32l-0.27-.53a24.34,24.34,0,0,1-.53-4,2.81,2.81,0,0,1,0-.32,2,2,0,0,0-.3-1.6,2.1,2.1,0,0,0-.53-0.49,2.29,2.29,0,0,1-.9-1.22,3.74,3.74,0,0,1-.14-0.55,1.84,1.84,0,0,0-.8-1.16,2.49,2.49,0,0,0-1.64-.46h-0.21c-0.22-.73-0.45-1.46-0.71-2.18a1.69,1.69,0,0,0-1.19-1.09,2.67,2.67,0,0,0-1.81.14,1.52,1.52,0,0,1-1.37,0,2.93,2.93,0,0,1-.83-0.54,2,2,0,0,0-1.59-.41,2.08,2.08,0,0,0-.94.32,2.2,2.2,0,0,1-1.76-.2,2.14,2.14,0,0,1-.46-0.27,2.54,2.54,0,0,0-2.63-.43,2.82,2.82,0,0,0-1,.61,1.35,1.35,0,0,0-.18.22,3.93,3.93,0,0,1-1,1.07,2.07,2.07,0,0,1-.76.27,2.57,2.57,0,0,0-1.84.6c-0.07.07-.53,0.54-0.72,0.67a3.14,3.14,0,0,1-1.47.55,7,7,0,0,0-1,.12,2.81,2.81,0,0,0-2,.83,0.88,0.88,0,0,0-.22.38,4.82,4.82,0,0,1-.21.75,1.37,1.37,0,0,1-.42.65,5.1,5.1,0,0,0-1,.67,4.8,4.8,0,0,0-.37.48,5.8,5.8,0,0,1,4.82-.32,7.27,7.27,0,0,1,4.13,3.1l2.27-1.63c14.69-6.1,14,8.77,12.66,15.6a16.81,16.81,0,0,0,.91,9.79c0.18,0.46.37,0.91,0.59,1.36-0.79-3.56.24-7,1.18-12.41a42.72,42.72,0,0,0,.41-10c0-.27,0-0.53-0.06-0.8,3,4,1.76,9.86,2,16.64,0.09,2.3.35,4.19,1.33,5.54,0.13,0.18.28,2.91,0.44,3.07a26.59,26.59,0,0,1,0-4.87c0-.15,0-0.29,0-0.42a2.3,2.3,0,0,0-.07-0.6,2.08,2.08,0,0,1,0-1.09,2.19,2.19,0,0,0,.14-1.28c0-.06,0-0.12,0-0.18a1.74,1.74,0,0,1,.05-0.82c0-.17.11-0.3,0.16-0.44a2.51,2.51,0,0,0,.11-1.56,1.28,1.28,0,0,1-.08-0.46,2,2,0,0,1,.35-1l0.15-.2a2,2,0,0,0-.1-1.88,1.44,1.44,0,0,1-.07-0.38,3.39,3.39,0,0,1,.17-1.29C399.7,367.66,399.77,367.46,399.84,367.25Z" transform="translate(-217.7 -301.47)"/><path class="cls-1" d="M334.61,425.74a4.11,4.11,0,0,0-.94-3.16c0-.16-5.4,4.28-5.6,4l0.08,0.09,0,0c1.79,2.18,2.08,3.24,2.27,6.19C333,429.82,334.44,427.66,334.61,425.74Z" transform="translate(-217.7 -301.47)"/><path class="cls-1" d="M329.6,475.3c1,0.22,2.33.59,3.31,0.86l0.53,0.16c2.32,0.69,4.64,1.41,7,2.33a19.77,19.77,0,0,0,3-4.08,12.64,12.64,0,0,1-7-3.12S332,474,329.6,475.3Z" transform="translate(-217.7 -301.47)"/><path class="cls-1" d="M377.15,477.14a42.49,42.49,0,0,1-5.91,4.71c1,0,2.17.07,3.21,0.15h0c2.14,0.19,4.25.53,6.47,0.83a33,33,0,0,0,3.26-3.34c-2.23-.73-6.7-2.91-6.72-2.92Z" transform="translate(-217.7 -301.47)"/><path class="cls-2" d="M414.19,475.43v-174H217.7V475.41c0,19.13,9.77,34.37,26.12,40.76,4.66,1.83,12.52,3.74,21.62,5.94,17.54,4.25,41.55,10.06,48.34,17.47L316,542h0l2.24-2.45c6.78-7.41,30.76-13.23,48.27-17.48,9.07-2.2,16.91-4.1,21.56-5.93,16.34-6.39,26.1-21.63,26.1-40.75h0Zm-6.06,0a42.8,42.8,0,0,1-2.57,14.94c-10.69-5.48-32.65-11.27-50.17-7.2a81.66,81.66,0,0,0-30.75-8.57h0a10.15,10.15,0,0,1-.61-2.41c-1.27-7.82-1.35-23.16-1.27-25,0.45-9.91-2-11.25-3-13.49-0.1-3.22-.42-15.16-0.54-23.61,1.4-4.57,6.4-7.69,7.72-7.52,4,0.52,3.76-.74,3-1.31-0.41-.32-0.74-1.37.34-1.37,2.34,0,5.07-.91,5.75-2.17,0.54-1,.28-2.11-0.45-1.88-0.89.28-1.2-.57,0-1.14,1.45-.69,3.42-1.94,3.87-3.59,0.59-2.13-.42-1.94-1-1.54-0.85.57-1.48-.57-0.8-1.37a4.84,4.84,0,0,0,.74-5.58c-0.91-1.37-3.87-.57-3.87.85s-1.14.68-1.14-.06c0-1.15-.23-1.82-1.54-1.31-2.95,1.15-2.74,4.33-2.34,5.81,0.16,0.62-.34.74-0.74,0.29a4.24,4.24,0,0,1-.8-1.88c-0.11-.91-0.8-0.91-1.37-0.57-2.77,1.66-2.39,5.7-1.93,6.72s-0.23,1-.51.63c-1.11-1.55-1.65.17-1.25,2.11a12.56,12.56,0,0,1-.29,6.2,34.2,34.2,0,0,1-3.44,2.4c0-1.22,0-2.08.07-2.4h0c0-.17,0-2.88-0.05-4,0,0-.79-16.26,1.4-25.25l-1.95-1.19C318.79,355.2,330,352.15,333.85,354s6.7,3,9.76,2.31c2.16-.52.52-1.71,0.07-2.38-1.07-1.6.9-2.16,1.57-1.41a7.17,7.17,0,0,0,3.06,2.24c5.06,2.1,7.22-1.87,5-3.51-1.23-.9-0.3-1.64.82-1.34,4.25,1.49,9-.16,9.84-1.12s0.44-1.57-.37-2c-1.89-1-.29-2.4,1.79-2,4.77,0.9,5.66-4.47,3.65-6.26-1.26-1.12-1.19-1.93-.23-3.27s2.39-4.92-.67-6.71-5.67,1.27-6.19,2.83-2.14,1.71-2.23.15c-0.08-1.27-.83-1.78-2.91-0.89s-4.1,3.87-4.92,6.11c-0.75,2-2.46,1.2-2-.67,0.55-2.31-.08-3.13-1.79-2.31-2.08,1-4.32,4.47-4.32,6.63s-2.16,1.42-2.16.3c0-2.54-1.94-1.57-2.83-.52a48.13,48.13,0,0,1-8.72,8.58c-4.21,3.11-6.46,4.83-11,8.56-0.65-6.08,1.49-7.95,2.48-9.31a2.1,2.1,0,0,1,1.92-1c6.49,0.47,8.78-2.43,9.44-4.4a1.81,1.81,0,0,0-.38-1.68c2.42-2.79,6.21-8.44,2.61-12-2.93-2.93-8.43-.71-11.29,1.36,0.68,3,8.68,10.68,8.68,10.68-4.28-2.31-9.63-8.28-10.47-9.55a1,1,0,0,0-.76.37c-4,2.67-3.6,8.82-2.24,12.11a2.16,2.16,0,0,1-.31,2.42,13.48,13.48,0,0,0-2.73,8.26c-5.15-4.1-2.7-10.5-2.49-13.66,0.25-3.6-2.61-3.29-3.41-2.17-0.59.81-1.49,0.62-1.24-.62a10.59,10.59,0,0,0-.06-4.84c-1-3.65-3-2.51-3.67-1.12s-1.55.93-1.49-.55a3.76,3.76,0,0,0-4.1-4.1c-4.47.1-5.83,5.09-4.28,7.95a0.74,0.74,0,0,1-.93,1.12c-0.81-.25-1.8.31-1.36,2.48a7.58,7.58,0,0,0,4.9,5.28c1.27,0.34.93,0.87,0.49,1.25a1.65,1.65,0,0,0-.55,2,8.11,8.11,0,0,0,6.77,5.21,1.62,1.62,0,0,1,1.37,1.12c1.49,3,4,2.73,5.33,2.61,3.58-.34,2.92,4.28,2.67,8.75-2.29-2.11-4-3.41-10-6.7-5.18-2.86-6.7-8.56-7.94-10.82s-2.8-.86-3.4-0.16-1.18.48-1.13-.65c0.08-1.52.12-3.28-.32-4.1-1.89-3.5-5-2.21-5.5-1.4s-0.86,1.29-1.78-.33-0.65-2.43-1.45-4c-1.44-2.94-3.72-1.15-4.34.32-0.52,1.23-1.23.39-1.17-.77,0.19-3.41-4.61-6.19-7.64-3.17-3.53,3.52-.52,6.93,1.55,7.7,1.12,0.41.52,1.29-.26,1.23-1.72-.15-2.39.84-1.81,2.65s2.92,3.58,5.51,3.88c1.1,0.13,1.23,1,.45,1.17-1.29.22-1.42,1-.78,1.88a8,8,0,0,0,8.48,3c0.81-.26,1.43.65,0.46,1.23-0.74.45-1.17,1.1-.52,1.75a7.72,7.72,0,0,0,7.06,1.62c3.17-.71,7.46,0,11.47,1.45,5.7,2.12,11.63,7.23,11.4,13.57-0.13,3.88.07,7.9,0.3,14.54-2.53-.89-3.72-2.09-5.66-5.67s0.52-8.57-4.4-12.45a1.42,1.42,0,0,0-1.79-.15c-4.18-2.91-10.21-5.22-13.35-2s-0.2,9.54,2.37,12.42c2-1.49,9.35-8.72,9.35-8.72s-5.87,8.35-8.29,9.72a1.88,1.88,0,0,0,.08,1.71c2.56,3.42,5.51,2.76,11,2.84,7.91,0.11,9.39,7.07,10.14,12.52,0.16,1.19,0,1.79-.52,1.49-1.82-1-1.64,1.19.15,3.43,3.26,4.07,1.57,11.63,1.27,13.57s-1.19,2-2.24-.08c-1.74-3.47.45-7.38-.37-10.51-1.28-4.86-3.43-3.43-4-2.31s-1.49.45-1.42-.44a23.84,23.84,0,0,0-.14-3.88c-0.65-4.55-4.63-3.2-5.38-1.93s-1.49.82-1.79-.22a27.89,27.89,0,0,1-.52-4.4c-0.48-4.31-3.45-3.06-4.34-1.94s-1.57,1-1.72-.75c-0.37-4.33-3.8-5.29-6.56-3.35-5.87,4.12-.55,8.57.26,9.17a1,1,0,0,1-.07,1.87c-4,1.46.3,6.71,3.21,7.68,0.95,0.32,1.49,1.19.52,1.71s-1.34.83-.75,2.32c1,2.47,1.76,4,5.78,3.72a1.13,1.13,0,0,1,.89,2c-1.3.93-.89,2.53,1.12,2.76,3.19,0.35,6.64,0,9.17,1.12,2.92,1.28,6.41,2.75,6.64,7.75,0.16,3.5.22,9.24,0.07,14.08-0.07,2.25-1.94,1.64-1.86,5.82,0.1,6.12.52,16.18,0,23.33a7.73,7.73,0,0,1-1.16,3.73A81.63,81.63,0,0,0,279.63,484c-14.86-4.27-40.31-1.37-53.36,6l-0.14-.24a43,43,0,0,1-2.36-14.33V307.54H408.13V475.41ZM327.37,392a7,7,0,0,1-.24-3.62c0.49,2.23,1.33,3,1.73,4.86,3.12-3.42,1.34-6.14,2.48-8.38,0,2.28.7,3.12,0.55,4.61a13.76,13.76,0,0,0,3.27-4.76c0.2,2.08-.82,3.2-2.92,5.75-2.83,3.41-5.2,7.13-7.38,9.81a10.71,10.71,0,0,0-.1-6.09,5.6,5.6,0,0,1,1.49,2.68C327.37,395.09,328.16,394.45,327.37,392Zm20.11-53.44a7.58,7.58,0,0,1-.35,5.11c3.66-.68,8.18-1.45,9.7-8.59a9,9,0,0,1-.6,5.53,22.09,22.09,0,0,0,7.83-7.57c-2.63,6.89-7.49,10.85-15.4,12.34-8.59,1.62-18.8,4.6-21.1,6.13a28.07,28.07,0,0,1,6.47-3.83,11,11,0,0,0,5.1-4.76,4.49,4.49,0,0,1-1,3.57C343.82,344.66,346.88,342.61,347.48,338.53Zm-25.34-5.35h0Zm3,4.3,0,0.06h0v-0.06Zm-16.41,10.61a7.59,7.59,0,0,1,.72-5c0.15,3,.65,5.87,1.51,7.24s2.15,2.29,3.15,4.44c-9.31-6.59-14.69-13.54-15.62-23.22a37.84,37.84,0,0,0,4,8.6,6.17,6.17,0,0,1,2-4.08C302.88,342.21,304.38,343.79,308.68,348.09Zm-28.11-8.35c-0.19,7.19,4.1,8.59,7.28,10.46a20,20,0,0,1,0-6.25c0.75,6.44,3,8.22,6.16,9.8a8.72,8.72,0,0,1-.09-4.11,15.2,15.2,0,0,0,4.29,7.47c-9.34-3.45-24.28-12.79-25.39-19.14a24.11,24.11,0,0,0,7.38,7A11.62,11.62,0,0,1,280.57,339.73Zm19.67,70.91a12.6,12.6,0,0,1,.66-6.14c0,5.22,3,10.7,8.13,14.47-16.14-10.42-19-17.24-20.59-27,1.51,3.37,1.2,6.14,4.1,9.58a7.08,7.08,0,0,1,1.06-3.7C293.07,403.51,294.56,405.76,300.24,410.64Z" transform="translate(-217.7 -301.47)"/><path class="cls-3" d="M354.22,383.38c-0.2,1,.09,3.15,2.66,2.26,1.65-.57,1.66-1.09,2.83-1.91a15.15,15.15,0,0,1-4.23-5.94c-0.32-.92-0.42-1.66-1.39-1.93a1.93,1.93,0,0,1-1.52-1.94c0-1-1.52-2.91-4.56-3.32s-4.38-1.89-6.73-4.52a4.21,4.21,0,0,0-2.63-1.52,3.58,3.58,0,0,1-2.08-1c-1.5-1.2-2.74-.85-4.54-0.58a40.06,40.06,0,0,0,.17,6.59,6.87,6.87,0,0,1,.83,0h0a10.26,10.26,0,0,1,1.33,0,3.41,3.41,0,0,0,.23,3.24,3.07,3.07,0,0,1,1-1.58,3.16,3.16,0,0,0,1.12,3.28c0.09-4.9,4.23-2,5.47-1.34s3.46,2,3.87,3.41a8.39,8.39,0,0,0,3.31,4.15,7.54,7.54,0,0,0,.83,2.49c0.94,2.2-1.25,2.49-2.49,1.93a9.29,9.29,0,0,0,3.41,6.43,6.06,6.06,0,0,0,1.8-3.28C353,386.47,351.52,385,354.22,383.38Z" transform="translate(-217.7 -301.47)"/><path class="cls-3" d="M365.2,362.4a0.77,0.77,0,1,0,1.15,0A0.81,0.81,0,0,0,365.2,362.4Z" transform="translate(-217.7 -301.47)"/><path class="cls-3" d="M391,428.87c1.52-2.49,4.7-2.07,6-1.94-0.14-3.59-1.59-5-4.08-4.56a25.08,25.08,0,0,0,.35-10.85c-0.49,1.24-1.87,1.11-2.42,3.38-0.69-1-.09-2.73.35-3.52a7,7,0,0,0-.63-7.12c-0.06,3-1.38,7.68-2.83,8.3-0.41-1.32-.34-2.63.42-5.33,2.12-7.52-.83-9.4-2.28-10.44a19,19,0,0,1,.63,5.74c-0.26,3.17-2.28,4.22-1.87,11.61,0.21,3.73,2.66,5.63,3.11,7.88,0.7,3.46-3.24,2.9-4,1.31-2.81-5.88-4.76-20.32-3.59-29.17a4.67,4.67,0,0,0,3,.62c-1.73-1.86-.9-6.36-0.14-7.81a4.31,4.31,0,0,0,2.15,1.52,4.64,4.64,0,0,1-.08-3.59c0.54-1.16,3.52-2.83,1.87-7.53a2.52,2.52,0,0,0,2.07,1.24c-0.83-.9-0.69-1.18-0.49-3s1.25-4.35.07-7.26a1.9,1.9,0,0,0,2.08.21,3.51,3.51,0,0,1-2-3c0-1.4-.66-2.45-1.95-4-0.86,1.09-3.51.55-5.57-.31-2.28-1-3.19-1.24-4.58-.78,1.3-1.66,2.4-1.42,4.29-.16a7.33,7.33,0,0,0,5.53.87,4.09,4.09,0,0,0,2.62-2.35c-1.79.34-4.21-4.7-11.75-1.73a2.29,2.29,0,0,0-.27.07,6.78,6.78,0,0,0-4.13-3.1c-5.35-1.66-6.13,2.2-6.72,3.17a4.27,4.27,0,0,0-.42-1.93c-0.21,1.45-2.42,3.25-3,3.87s-0.62,2.63-1.31,3.39c-0.55.6-2.49,2.49-3.25,3.25a2.75,2.75,0,0,1-2.14,1,1.25,1.25,0,0,0-1.18,1.45,1.83,1.83,0,0,1,0,.35,8.23,8.23,0,0,1-.54,2.05h0a5.55,5.55,0,0,1-.35.71c-0.42.69,0.34,1.66,1,1.87s1.2,0.39,1.83.6a12.38,12.38,0,0,1-2,1,5.51,5.51,0,0,0,4.33-.31c2.1,0.44,4.06.21,5.07-2.39,0.63-.76,1.18-0.14,1.18.28a2.81,2.81,0,0,1-.69,1.66c-1.18,1.62-3.39,3.32-2.84,5.46a4.89,4.89,0,0,1,2.49-2.56,3.59,3.59,0,0,1,1.18-.29c0.59-.05,1.2,0,1.82-0.13a4.23,4.23,0,0,0,3.08-2.21c0.14,5.25-4.63,5.39-7,5.11a3,3,0,0,1-1.31,2.63,15.76,15.76,0,0,1-2.54,1.59,5.36,5.36,0,0,1-2.71,2.74c-2.39,1.23-3.26-1-3.31-2-1,.61-0.25,2.3-0.08,3.57,0.55,4-3.94,5.94-6.14,5.33a2.86,2.86,0,0,1-.63-0.19,13.33,13.33,0,0,1,1.27,2.54c-1.86.31-3.62,1.42-4,2.17a2.94,2.94,0,0,1-1.81,1.9c-1.14.38-2,.38-3,2.66-1.66,3.64-8.45,9.69-9.31,11s-1.9,2.38-1.71,3.61a4.63,4.63,0,0,1-.76,3.9c-1,1.31-1.17,3.45.57,5.61,2.69-1.42,4.9-3,5.6-4,0.19-1.42-.84-2.06-0.56-3.32a6.66,6.66,0,0,0,.57-3.32,4.05,4.05,0,0,0,4,2c-0.48-.57-1-1.33-0.19-2.09,1.23-1.23.47-2.28,0.19-3.61a2.21,2.21,0,0,1,.85-2.75,6.3,6.3,0,0,0,2.95-3.13,1.67,1.67,0,0,1,1.52-1.23,9.61,9.61,0,0,0,4.66-1c0.76-.47,1.27-1,2-1.39,0.36,2.08,1.13,3,1.13,4.4a5.84,5.84,0,0,0,2,4.28,3.7,3.7,0,0,1,.28-1.52c0.14-.49,1-0.9,1,0.14a4,4,0,0,0,1.24,3,2.12,2.12,0,0,1,2.56-1.38,5.22,5.22,0,0,1,.07,2.76,4.81,4.81,0,0,0,2.28-1.66,1.15,1.15,0,0,1,1.67.14,6.3,6.3,0,0,0,3.53,1.59,1.47,1.47,0,0,1,1.24,1,12.27,12.27,0,0,0,1.66,3.8,4.83,4.83,0,0,1-2.84-1.79,7.87,7.87,0,0,0,.21,4.35,13.59,13.59,0,0,0,1,2.12c-2.6,1.82-6.15,3.9-7.7,4.32a16.15,16.15,0,0,0-7.82,6.3,33.5,33.5,0,0,1-3.69,5.21c-1,1.3-1.52,1.52-2.49,1.41s-2.5,1.63-2.61,3.58c0.76-.87,1.52-0.87,2.49-1.19-0.65,3-2.93,3.9-5.43,3.69,0.76,3.37,3.69,3.58,5.43,2.5a1.35,1.35,0,0,0,.44,1.84,1.47,1.47,0,0,1-.54,2.61c2.93,1.74,5.32-.65,5.32-1.41s0.33-1,1.42-.21a6.67,6.67,0,0,0,5.1.43c1.74-.54,2.06.87,2.28,1.63,0.66,2.31-.33,2.82-1.08,3.58-2.2,2.19-9,5.65-11.4,6a5.35,5.35,0,0,0-4.13,2.93,2.63,2.63,0,0,1-1.41,1.74c-1.16.23-4.85,2.91-4.86,2.94-0.1.35,3.81,2.72,6.61,3.46a23.18,23.18,0,0,0,2-1.61q-0.77-.08,0,0a13.34,13.34,0,0,0,1.25-2.41,3.56,3.56,0,0,1,.65,2.71,7.54,7.54,0,0,0,1.82-3.47,5.56,5.56,0,0,1,.25,2.39,7,7,0,0,0,1.77-3.29,9.35,9.35,0,0,1,.07,2.53c2.93-2.06,2.93-6,8.9-9.34,0.11,0.87,0,1.63-1,3.48a12.29,12.29,0,0,0,4.55-4.12c0.87-1.42,2.39-1,4-.87-0.33-2.93,0-5.42.87-6a2.37,2.37,0,0,0,.54-2.71,3.14,3.14,0,0,1-.11-2.71c0.44-1.42-1.09-2.29-2.17-2.29-2.76,0-1.44-6.31,2.64-5.55-0.78-1.74-2.5-3.22-2.85-5.08-0.87-4.69.72-6.61,0.85-13,0.2,0.85,1.33,4,.88,5.66a23.17,23.17,0,0,0,.78,12.53,20.74,20.74,0,0,1,1.58,7.61c1,0.83,3.45,3.53,3.59,5.67a5.28,5.28,0,0,0,2.56-2.83,4.32,4.32,0,0,1,.14,3.25,12.36,12.36,0,0,0,3.66-2.5c0.83-.76,1-1.52,2.42-1.38,3,0.29,4.63,3.31,5.12,8.08s-2.22,8.85-3.94,10.09a25.59,25.59,0,0,0-5.39,5.6l0,0-0.54.87s4.36,2.18,6.43,3.1a6,6,0,0,0,.83-0.75q-0.85-.28,0,0a10.73,10.73,0,0,0,1.73-2.7c0.76-1.87.41-3.18,1.38-3.18,1.13,0,.76,1.94.83,3.11a9.92,9.92,0,0,1,3.26-3.46,4.73,4.73,0,0,0-.14-1.59,3.23,3.23,0,0,0,1-1c-1.8-2.63-.9-5.47.42-7.61a8.63,8.63,0,0,1,1.66,1.59c-0.55-3.25-.07-8.64.42-11.68,0.21-1.31-1.4-2.34-.83-5,0.69-3.17-3.06-4.42-5.26-4.07-3.46.55-4.49-1.38-4.56-3a2.56,2.56,0,0,0,2.14-.28,3,3,0,0,1-1.94-2.56,2.88,2.88,0,0,0,2.77-.9c-3.32-1.52-3.11-3.73-2.63-5.67A4.86,4.86,0,0,0,391,428.87Zm-27-64.24c0.63-1.66-.3-2.19.74-3.43a2.44,2.44,0,0,1,1.93-.34c0.93,0.16,1.27,1.65.5,2.66S365,364.42,364,364.63Zm8.25,35a4.48,4.48,0,0,0-.66,3.63,2.21,2.21,0,0,1-2.13-1.06c-0.33-.49-1.14-0.18-1.79.15a4.19,4.19,0,0,1-4.26-.15,0.73,0.73,0,0,0-1.14.58c-0.08,1.77-.95,3.16-4,3.82a2.18,2.18,0,0,0,.46-2.74c-0.92,1.84-2.21,2.19-4.66,1.53,1.55-.73,2.36-2.69.08-2.45,2.17-.61,3,0.69,1.75,1.86a3.5,3.5,0,0,0,2.41-1.47c0.59-1.18,2.3-1.71,1.24,2.12a22.53,22.53,0,0,0,2.06-2.89c0.38-.74,1-1,2.12-0.77,1.88,0.41,2.37-.14,3.65-0.82,1.77-.95,2-0.13,2.36.35a4.44,4.44,0,0,0,1.29,1.53c-0.94-2.18-.25-2.76.41-4.07a8.21,8.21,0,0,0,1-3.78C373,397.48,372.93,398.5,372.28,399.64Zm-0.19-32c-1.9-.11-2.85.07-5.45,3.29,2.06-5,4.54-3.77,6.6-5,1.34-.8,1.87-2.26,2.26-3.87C376.44,366.25,375,367.81,372.09,367.64Z" transform="translate(-217.7 -301.47)"/><path class="cls-3" d="M264.77,363.73c0-5-1.67-9-6.87-12.43,4.82,1.22,8.59,5.61,8.59,12.35,0,2.56.28,6.34,2.61,9.57h3.75c-2.94-2.94-3.9-5.28-3.9-9.25,0-8.68-5-14.25-11.23-15a2.39,2.39,0,1,0-3.05,0c-6.25.78-11.23,6.35-11.23,15,0,4-1,6.31-3.9,9.25h26.66C265.21,370.95,264.77,368.62,264.77,363.73Z" transform="translate(-217.7 -301.47)"/><path class="cls-3" d="M240.77,409.63h30.84a4,4,0,0,0,0-8H240.77A4,4,0,1,0,240.77,409.63Z" transform="translate(-217.7 -301.47)"/><path class="cls-3" d="M273.22,460.91H239a2,2,0,1,0,0,3.91h34.18A2,2,0,1,0,273.22,460.91Z" transform="translate(-217.7 -301.47)"/><path class="cls-3" d="M239.32,412.12v47h33.74v-47H239.32Zm14.15,40.08h-7.16V423.31h7.16V452.2Zm13.18,0h-7.16V423.31h7.16V452.2Z" transform="translate(-217.7 -301.47)"/><path class="cls-3" d="M273.15,466.58H239.28l-5.83,20.85s25.72-8.95,45.36-2.9Z" transform="translate(-217.7 -301.47)"/><path class="cls-3" d="M261.13,450.44V425.08H265v25.36h-3.87Z" transform="translate(-217.7 -301.47)"/><path class="cls-3" d="M256.19,375H242.64v24.17h27.11V375H256.19Zm4.58,16.28v4.55h-2s0-.08,0-0.12v-6.23a2.39,2.39,0,0,0-2.39-2.39h-0.52a2.39,2.39,0,0,0-2.39,2.39v6.23s0,0.08,0,.12h-1.93v-4.9c0-1.77,0-5.93,4.59-5.93a5.48,5.48,0,0,1,2,.35c2.58,1,2.58,4,2.58,5.57v0.35Z" transform="translate(-217.7 -301.47)"/><path class="cls-3" d="M248,450.44V425.08h3.87v25.36H248Z" transform="translate(-217.7 -301.47)"/></svg>